<?xml version="1.0" encoding="iso-8859-1"?>
<!-- Generator: Adobe Illustrator 19.0.0, SVG Export Plug-In . SVG Version: 6.00 Build 0)  -->
<svg version="1.1" id="Capa_1" xmlns="http://www.w3.org/2000/svg" xmlns:xlink="http://www.w3.org/1999/xlink" x="0px" y="0px"
	 viewBox="0 0 512.007 512.007" style="enable-background:new 0 0 512.007 512.007;" xml:space="preserve">
<g>
	<rect x="34.286" y="332.891" style="fill:#86D09A;" width="85.289" height="170.579"/>
	<rect x="153.691" y="213.486" style="fill:#86D09A;" width="85.289" height="289.983"/>
	<rect x="273.096" y="298.775" style="fill:#86D09A;" width="85.289" height="204.694"/>
	<rect x="392.5" y="179.37" style="fill:#86D09A;" width="85.289" height="324.099"/>
</g>
<g>
	<circle style="fill:#FFAF46;" cx="76.93" cy="196.428" r="34.116"/>
	<path style="fill:#FFAF46;" d="M176.736,104.981c15.437,10.806,36.709,7.053,47.515-8.384c10.806-15.437,7.053-36.708-8.384-47.515
		s-36.708-7.053-47.515,8.384C157.546,72.904,161.298,94.175,176.736,104.981L176.736,104.981z"/>
	<circle style="fill:#FFAF46;" cx="315.74" cy="162.313" r="34.116"/>
	<circle style="fill:#FFAF46;" cx="435.145" cy="42.908" r="34.116"/>
</g>
<g>
	<path style="fill:#231F20;" d="M486.285,494.949v-315.57c0-4.708-3.821-8.529-8.529-8.529h-85.289
		c-4.708,0-8.529,3.821-8.529,8.529v315.57H366.88V298.784c0-4.708-3.821-8.529-8.529-8.529h-85.289
		c-4.708,0-8.529,3.821-8.529,8.529v196.165h-17.058V213.495c0-4.708-3.821-8.529-8.529-8.529h-85.289
		c-4.708,0-8.529,3.821-8.529,8.529v281.455H128.07V332.9c0-4.708-3.821-8.529-8.529-8.529H34.251c-4.708,0-8.529,3.821-8.529,8.529
		v162.05H0.136v17.058h511.736v-17.058H486.285z M42.78,494.949V341.429h68.231v153.521H42.78z M162.185,494.949V222.024h68.231
		v272.926H162.185z M281.59,494.949V307.313h68.231v187.636H281.59z M400.995,494.949V187.908h68.231v307.041H400.995z"/>
	<path style="fill:#231F20;" d="M76.896,239.081c23.548,0,42.645-19.096,42.645-42.645c0-8.358-2.456-16.538-7.07-23.514
		l60.368-60.376c6.917,4.631,15.054,7.113,23.378,7.13c2.508,0,5.015-0.222,7.488-0.657c8.111-1.424,15.634-5.177,21.646-10.815
		l50.602,38.9c-8.444,21.988,2.533,46.653,24.512,55.097c21.988,8.444,46.653-2.533,55.097-24.512
		c4.955-12.896,3.352-27.386-4.29-38.892l60.351-60.351c19.702,13.041,46.235,7.642,59.276-12.06
		c13.041-19.702,7.642-46.235-12.06-59.276c-19.702-13.041-46.235-7.642-59.276,12.06c-9.476,14.312-9.476,32.905,0,47.216
		l-60.351,60.351c-16.904-11.173-39.335-8.913-53.664,5.416c-0.162,0.162-0.256,0.35-0.409,0.503L235.27,94.328
		c9.578-21.518-0.102-46.721-21.612-56.299s-46.721,0.102-56.299,21.612c-5.928,13.305-4.648,28.717,3.395,40.871l-60.342,60.351
		c-19.651-12.99-46.099-7.591-59.088,12.06s-7.591,46.099,12.06,59.088C60.35,236.625,68.529,239.09,76.896,239.081z
		 M435.111,17.329c14.132,0,25.587,11.454,25.587,25.587s-11.454,25.587-25.587,25.587s-25.587-11.454-25.587-25.587
		S420.979,17.329,435.111,17.329z M315.706,136.734c14.132,0,25.587,11.454,25.587,25.587c0,6.789-2.695,13.305-7.497,18.098
		c-10.124,9.655-26.056,9.655-36.18,0c-9.996-9.987-10.004-26.192-0.009-36.188C302.401,139.438,308.917,136.734,315.706,136.734z
		 M175.345,62.354c3.881-5.569,9.825-9.365,16.512-10.525c1.484-0.256,2.985-0.384,4.495-0.384
		c5.237,0.009,10.346,1.62,14.627,4.631l0,0c11.574,8.102,14.388,24.06,6.277,35.634c-8.111,11.574-24.06,14.388-35.634,6.277
		C170.049,89.893,167.234,73.936,175.345,62.354C175.345,62.362,175.345,62.362,175.345,62.354z M58.806,178.338
		c9.996-9.987,26.201-9.987,36.188,0.009s9.987,26.201-0.009,36.188c-10.124,9.655-26.056,9.655-36.18,0
		c-9.996-9.987-10.004-26.192-0.009-36.188C58.798,178.347,58.798,178.347,58.806,178.338z"/>
</g>
<g>
</g>
<g>
</g>
<g>
</g>
<g>
</g>
<g>
</g>
<g>
</g>
<g>
</g>
<g>
</g>
<g>
</g>
<g>
</g>
<g>
</g>
<g>
</g>
<g>
</g>
<g>
</g>
<g>
</g>
</svg>
