<svg id="Layer_1" enable-background="new 0 0 512 512" height="512" viewBox="0 0 512 512" width="512" xmlns="http://www.w3.org/2000/svg"><g><path d="m362.929 288.929-88.348 88.348c-21.011-18.017-47.101-28.784-74.581-30.893v-130.189c.002-.121.002-.242 0-.363v-119.664c.002-.121.002-.242 0-.363v-19.805c-.528-13.268-19.476-13.258-20 0v13.82l-114.471 57.236c-7.316 3.56-7.314 14.331 0 17.889l114.471 57.235v124.203c-27.48 2.109-53.57 12.877-74.581 30.893l-88.348-88.348c-3.906-3.904-10.236-3.904-14.143 0-3.905 3.905-3.905 10.237 0 14.143l180 180c3.906 3.905 10.237 3.905 14.143 0l180-180c3.905-3.905 3.905-10.237 0-14.143-3.906-3.903-10.236-3.903-14.142.001zm-102.538 102.539-60.391 60.39v-85.405c22.178 2.016 43.217 10.701 60.391 25.015zm-168.03-235.468 87.639-43.82v87.64zm87.639 210.453v85.405l-60.39-60.391c17.173-14.313 38.212-22.998 60.39-25.014z"/><path d="m442 26c-38.598 0-70 31.402-70 70 3.845 92.864 136.169 92.837 140-.001 0-38.597-31.402-69.999-70-69.999zm50 70c0 3.535-.37 6.985-1.071 10.315l-16.387 4.391c-2.667.715-4.25 3.457-3.536 6.124l4.383 16.356c-5.115 4.597-11.179 8.157-17.859 10.345l-11.995-11.995c-1.953-1.953-5.119-1.953-7.071 0l-11.995 11.995c-6.68-2.188-12.744-5.748-17.859-10.345l4.383-16.356c.715-2.667-.868-5.409-3.536-6.124l-16.387-4.391c-1.422-6.618-1.422-14.012 0-20.63l16.387-4.391c2.667-.715 4.25-3.456 3.536-6.124l-4.383-16.356c5.115-4.597 11.179-8.157 17.859-10.345l11.995 11.995c1.953 1.953 5.119 1.953 7.071 0l11.995-11.995c6.68 2.188 12.744 5.748 17.859 10.345l-4.383 16.356c-.715 2.667.868 5.409 3.536 6.124l16.387 4.391c.702 3.33 1.071 6.78 1.071 10.315z"/><path d="m453.469 82.35c-.914-1.462-2.516-2.35-4.24-2.35h-14.458c-1.724 0-3.326.888-4.24 2.35l-6.875 11c-1.013 1.621-1.013 3.678 0 5.3l6.875 11c.914 1.462 2.516 2.35 4.24 2.35h14.458c1.724 0 3.326-.888 4.24-2.35l6.875-11c1.013-1.621 1.013-3.679 0-5.3z"/><path d="m281.962 266c2.56 0 5.118-.976 7.071-2.929l90-90c3.905-3.905 3.905-10.237 0-14.143-3.906-3.905-10.236-3.905-14.143 0l-90 90c-3.905 3.905-3.905 10.237 0 14.143 1.954 1.953 4.513 2.929 7.072 2.929z"/><path d="m404.891 178.929-70 70c-3.905 3.905-3.905 10.237 0 14.143 3.906 3.905 10.237 3.905 14.143 0l70-70c3.905-3.905 3.905-10.237 0-14.143-3.907-3.905-10.237-3.905-14.143 0z"/><path d="m281.962 206c2.56 0 5.118-.976 7.071-2.929l70-70c3.905-3.905 3.905-10.237 0-14.143-3.906-3.905-10.236-3.905-14.143 0l-70 70c-3.905 3.905-3.905 10.237 0 14.143 1.954 1.953 4.513 2.929 7.072 2.929z"/></g></svg>