<svg id="Capa_1" enable-background="new 0 0 512 512" height="512" viewBox="0 0 512 512" width="512" xmlns="http://www.w3.org/2000/svg"><g><path d="m100.617 414.885c2.324 3.401 1.445 8.079-1.984 10.403-3.402 2.324-8.052 1.445-10.376-1.957-11.311-16.554-20.239-34.894-26.277-54.481-5.839-18.966-8.985-39.091-8.985-59.87 0-44.675 14.428-85.977 38.862-119.51l-11.99-11.99-3.203 3.203c-4.648 4.648-10.771 6.973-16.895 6.973-6.123 0-12.245-2.324-16.895-6.973l-15.478-15.477c-4.649-4.65-6.974-10.773-6.974-16.896s2.324-12.246 6.974-16.895l51.024-51.024c4.677-4.65 10.8-6.975 16.923-6.975 6.096 0 12.246 2.324 16.896 6.975l15.448 15.448c4.649 4.65 6.974 10.801 6.974 16.895 0 6.123-2.324 12.246-6.974 16.924l-3.203 3.174 12.02 12.02c21.515-15.703 46.233-27.27 73.021-33.533v-28.972c-6.86-.482-13.012-3.486-17.604-8.078-5.018-5.018-8.136-11.934-8.136-19.588v-26.958c0-7.625 3.118-14.57 8.136-19.588 5.018-5.018 11.963-8.135 19.588-8.135h88.982c7.653 0 14.569 3.117 19.587 8.135 5.046 5.017 8.136 11.963 8.136 19.588v26.958c0 7.654-3.09 14.57-8.136 19.588-4.564 4.592-10.743 7.596-17.575 8.078v28.972c26.76 6.264 51.507 17.83 73.022 33.533l11.991-11.99-3.203-3.203c-4.649-4.678-6.974-10.801-6.974-16.924 0-6.094 2.324-12.244 6.974-16.895l15.477-15.448c4.649-4.65 10.771-6.975 16.895-6.975s12.247 2.324 16.896 6.975l13.493 13.492c2.948 2.921 2.948 7.683 0 10.603-2.92 2.92-7.653 2.92-10.602 0l-13.493-13.493c-1.729-1.73-3.997-2.58-6.294-2.58-2.296 0-4.564.85-6.293 2.58l-15.477 15.448c-1.701 1.73-2.58 4.025-2.58 6.293 0 2.297.879 4.592 2.58 6.293l2.353 2.354 7.512-7.484c2.92-2.92 7.653-2.92 10.603 0 2.92 2.92 2.92 7.684 0 10.602l-7.484 7.484 7.228 7.256 7.513-7.482c2.92-2.92 7.653-2.92 10.602 0 2.92 2.947 2.92 7.682 0 10.602l-7.483 7.512 7.257 7.229 7.483-7.484c2.919-2.92 7.682-2.92 10.602 0 2.919 2.949 2.919 7.682 0 10.602l-7.483 7.513 2.353 2.324c1.7 1.73 3.997 2.609 6.293 2.609 2.268 0 4.563-.879 6.293-2.609l15.448-15.448c1.729-1.73 2.58-3.998 2.58-6.293 0-2.297-.851-4.564-2.58-6.293l-13.492-13.494c-2.948-2.947-2.948-7.682 0-10.602 2.92-2.947 7.682-2.947 10.602 0l13.493 13.494c4.649 4.648 6.974 10.771 6.974 16.895 0 6.123-2.324 12.245-6.974 16.896l-15.449 15.477c-4.649 4.648-10.8 6.973-16.895 6.973-6.123 0-12.246-2.324-16.923-6.973l-3.203-3.203-11.99 11.99c24.463 33.533 38.891 74.835 38.891 119.51 0 56.071-22.733 106.811-59.472 143.578-36.742 36.732-87.482 59.437-143.553 59.437-27.921 0-54.567-5.668-78.86-15.902-25.201-10.658-47.821-26.222-66.587-45.524-2.892-2.949-2.834-7.682.142-10.574 2.948-2.861 7.683-2.805 10.573.143 17.405 17.887 38.353 32.314 61.655 42.181 22.422 9.467 47.112 14.684 73.077 14.684 51.903 0 98.932-21.034 132.947-55.079 34.017-34.017 55.078-81.015 55.078-132.947 0-51.903-21.062-98.93-55.078-132.945-34.016-34.017-81.044-55.079-132.947-55.079-51.931 0-98.931 21.062-132.946 55.079-34.045 34.016-55.078 81.042-55.078 132.945 0 19.361 2.892 37.984 8.277 55.476 5.584 18.11 13.861 35.062 24.35 50.427zm297.5-271.422-10.744 10.742c4.225 3.572 8.277 7.315 12.19 11.228 3.912 3.912 7.653 7.965 11.226 12.188l10.744-10.742c-7.797-7.826-15.593-15.621-23.416-23.416zm-301.469-18.965c-2.921-2.918-2.921-7.682 0-10.602 2.92-2.92 7.682-2.92 10.602 0l7.483 7.484 2.353-2.354c1.729-1.701 2.58-3.996 2.58-6.293 0-2.268-.851-4.562-2.58-6.293l-15.448-15.448c-1.729-1.73-4.025-2.58-6.294-2.58-2.296 0-4.593.85-6.293 2.58l-51.023 51.024c-1.729 1.729-2.608 3.996-2.608 6.293 0 2.295.879 4.562 2.608 6.293l15.448 15.448c1.729 1.73 3.997 2.609 6.293 2.609s4.564-.879 6.293-2.609l2.353-2.324-7.483-7.513c-2.947-2.92-2.947-7.652 0-10.602 2.92-2.92 7.682-2.92 10.602 0l7.483 7.484 7.257-7.229-7.483-7.512c-2.948-2.92-2.948-7.654 0-10.602 2.92-2.92 7.682-2.92 10.602 0l7.484 7.482 7.257-7.256zm180.768-70.27c0-4.139 3.345-7.512 7.483-7.512 4.14 0 7.513 3.373 7.513 7.512v13.18h8.079c3.515 0 6.689-1.416 8.985-3.74 2.324-2.297 3.741-5.471 3.741-8.986v-26.959c0-3.486-1.417-6.662-3.741-8.986-2.296-2.297-5.471-3.742-8.985-3.742h-88.982c-3.486 0-6.661 1.445-8.985 3.742-2.296 2.324-3.741 5.5-3.741 8.986v26.958c0 3.516 1.445 6.689 3.741 8.986 2.324 2.324 5.499 3.74 8.985 3.74h8.107v-13.18c0-4.139 3.345-7.512 7.484-7.512s7.512 3.373 7.512 7.512v13.18h13.89v-13.18c0-4.139 3.374-7.512 7.512-7.512 4.139 0 7.484 3.373 7.484 7.512v13.18h13.918zm57.686 285.48c4.11-.057 7.512 3.26 7.568 7.369.028 4.14-3.26 7.515-7.398 7.571-.113 0-41.045.51-44.135-.512-4.962-1.672-7.003-4.337-5.047-10.12.68-2.068 2.184-4.025 5.5-8.361 4.28-5.613 12.104-15.875 24.889-34.158 2.098-2.977 3.883-5.811 5.243-8.787 1.191-2.551 2.041-5.218 2.495-8.138-.085-3.6-1.56-6.859-3.94-9.24-2.438-2.438-5.782-3.939-9.496-3.939-3.288 0-6.236 1.133-8.561 3.033-2.353 1.928-4.025 4.676-4.648 7.795-.794 4.053-4.734 6.719-8.788 5.924-4.054-.793-6.719-4.734-5.925-8.787 1.304-6.605 4.876-12.359 9.894-16.469 4.904-4.055 11.197-6.492 18.028-6.492 7.853 0 14.967 3.176 20.098 8.334 5.018 5.017 9.156 13.861 8.249 21.062-.624 4.903-1.956 9.185-3.799 13.181-1.757 3.799-3.996 7.371-6.604 11.084-10.176 14.57-17.064 23.867-21.628 29.934 11.564-.085 27.92-.284 28.005-.284zm-158.204-68.315c-4.139 0-7.483-3.346-7.483-7.484s3.345-7.512 7.483-7.512h18.34c4.139 0 7.512 3.373 7.512 7.512v85.806c0 4.14-3.373 7.485-7.512 7.485s-7.512-3.346-7.512-7.485v-78.321h-10.828zm87.195-27.27c1.531-3.826 5.868-5.727 9.694-4.195 3.855 1.531 5.727 5.867 4.195 9.693l-47.679 119.852c-1.502 3.855-5.839 5.727-9.695 4.195-3.826-1.502-5.697-5.867-4.195-9.695zm-39.572-135.725c10.262-1.615 20.777-2.438 31.492-2.438 10.716 0 21.232.822 31.494 2.438v-25.965h-2.608-28.886-28.913-2.579zm-123.309 69.222c3.601-4.223 7.342-8.275 11.226-12.188 3.912-3.912 7.994-7.655 12.188-11.228l-10.743-10.742c-7.795 7.795-15.59 15.59-23.415 23.415zm262.605 53.294c-2.438-3.346-1.672-8.052 1.673-10.462 3.345-2.438 8.021-1.672 10.46 1.672 8.985 12.39 16.129 26.278 20.976 41.218 4.649 14.428 7.2 29.765 7.2 45.638 0 40.904-16.582 77.927-43.398 104.741-26.788 26.79-63.809 43.372-104.714 43.372-40.904 0-77.925-16.582-104.741-43.372-26.788-26.814-43.37-63.837-43.37-104.741 0-40.903 16.582-77.925 43.37-104.713 26.816-26.816 63.837-43.398 104.741-43.398 17.858 0 35.009 3.203 50.911 9.014 16.47 6.039 31.578 14.91 44.732 26.051 3.147 2.664 3.544 7.398.879 10.545-2.665 3.176-7.398 3.543-10.545.879-11.821-10.006-25.398-17.971-40.224-23.414-14.231-5.217-29.651-8.051-45.753-8.051-36.766 0-70.045 14.883-94.139 38.977-24.067 24.095-38.978 57.374-38.978 94.111 0 36.766 14.91 70.046 38.978 94.112 24.094 24.095 57.373 39.005 94.139 39.005 36.738 0 70.018-14.91 94.111-39.005 24.096-24.066 38.978-57.347 38.978-94.112 0-14.371-2.239-28.177-6.435-41.073-4.309-13.353-10.743-25.826-18.851-36.994z"/></g></svg>