<svg height="512" viewBox="0 0 64 64" width="512" xmlns="http://www.w3.org/2000/svg"><g id="Filled_outline" data-name="Filled outline"><path d="m27 3h22a0 0 0 0 1 0 0v34a2 2 0 0 1 -2 2h-20a2 2 0 0 1 -2-2v-32a2 2 0 0 1 2-2z" fill="#dd3e46" transform="matrix(-1 0 0 -1 74 42)"/><path d="m19 57h18v4h-18z" fill="#50b4f8" transform="matrix(-1 0 0 -1 56 118)"/><path d="m25 30v-2a3 3 0 0 1 6 0v11h7v12l-3 3v3h-14v-3l-6-15z" fill="#ffd782"/><path d="m38 45h6a3 3 0 0 0 3-3 3 3 0 0 0 -3-3h-6z" fill="#f9bb4b"/><path d="m41 45h4a0 0 0 0 1 0 0v6a0 0 0 0 1 0 0h-4a3 3 0 0 1 -3-3 3 3 0 0 1 3-3z" fill="#eaa83d" transform="matrix(-1 0 0 -1 83 96)"/><path d="m47 2h-20a3 3 0 0 0 -3 3v24.555l-9.669 8.7a1 1 0 0 0 -.26 1.114l5.929 14.823v1.808h-2v6h20v-6h-2v-1.586l2.414-2.414h3.586a4 4 0 0 0 3.313-6.239 3.951 3.951 0 0 0 2.108-5.8 3 3 0 0 0 2.579-2.961v-32a3 3 0 0 0 -3-3zm-11 58h-16v-2h16zm1-9.414-2.707 2.707a1 1 0 0 0 -.293.707v2h-12v-2a1 1 0 0 0 -.071-.371l-5.742-14.353 7.813-7.031v9.755h2v-14a2 2 0 0 1 4 0v11a1 1 0 0 0 1 1h6zm5-.586h-3v-4h3a2 2 0 0 1 0 4zm2-6h-5v-4h5a2 2 0 0 1 0 4zm4-7a1 1 0 0 1 -1 1h-15v-10a4 4 0 0 0 -4-4 3.959 3.959 0 0 0 -2 .556v-19.556a1 1 0 0 1 1-1h20a1 1 0 0 1 1 1z"/><path d="m28 7v5h2v-4h6v-2h-7a1 1 0 0 0 -1 1z"/><path d="m28 14h2v2h-2z"/></g></svg>