<svg height="512" viewBox="0 0 64 64" width="512" xmlns="http://www.w3.org/2000/svg"><g id="Filled_outline" data-name="Filled outline"><path d="m17 3h20a2 2 0 0 1 2 2v34a0 0 0 0 1 0 0h-22a2 2 0 0 1 -2-2v-32a2 2 0 0 1 2-2z" fill="#fcf05a"/><path d="m27 57h18v4h-18z" fill="#50b4f8"/><path d="m39 30v-2a3 3 0 0 0 -6 0v11h-7v12l3 3v3h14v-3l6-15z" fill="#f9bb4b"/><path d="m26 45h-6a3 3 0 0 1 -3-3 3 3 0 0 1 3-3h6z" fill="#e29c2b"/><path d="m22 45h4a0 0 0 0 1 0 0v6a0 0 0 0 1 0 0h-4a3 3 0 0 1 -3-3 3 3 0 0 1 3-3z" fill="#c6821e"/><path d="m26 56v6h20v-6h-2v-1.808l5.929-14.821a1 1 0 0 0 -.26-1.114l-9.669-8.702v-24.555a3 3 0 0 0 -3-3h-20a3 3 0 0 0 -3 3v32a3 3 0 0 0 2.579 2.958 3.951 3.951 0 0 0 2.108 5.8 4 4 0 0 0 3.313 6.242h3.586l2.414 2.414v1.586zm18 4h-16v-2h16zm-28-23v-32a1 1 0 0 1 1-1h20a1 1 0 0 1 1 1v19.556a3.959 3.959 0 0 0 -2-.556 4 4 0 0 0 -4 4v10h-15a1 1 0 0 1 -1-1zm2 5a2 2 0 0 1 2-2h5v4h-5a2 2 0 0 1 -2-2zm2 6a2 2 0 0 1 2-2h3v4h-3a2 2 0 0 1 -2-2zm9.707 5.293-2.707-2.707v-10.586h6a1 1 0 0 0 1-1v-11a2 2 0 0 1 4 0v14h2v-9.755l7.812 7.031-5.741 14.353a1 1 0 0 0 -.071.371v2h-12v-2a1 1 0 0 0 -.293-.707z"/><path d="m18 34h2v2h-2z"/><path d="m22 34h2v2h-2z"/><path d="m34 10h2v-3a1 1 0 0 0 -1-1h-5v2h4z"/><path d="m34 12h2v2h-2z"/></g></svg>